<svg width="45" height="45" viewBox="0 0 45 45" fill="none" xmlns="http://www.w3.org/2000/svg">
<path d="M13.125 20.625H16.875V24.375H13.125V20.625ZM13.125 28.125H16.875V31.875H13.125V28.125ZM20.625 20.625H24.375V24.375H20.625V20.625ZM20.625 28.125H24.375V31.875H20.625V28.125ZM28.125 20.625H31.875V24.375H28.125V20.625ZM28.125 28.125H31.875V31.875H28.125V28.125Z" fill="#F7931E"/>
<path d="M9.375 41.25H35.625C37.6931 41.25 39.375 39.5681 39.375 37.5V11.25C39.375 9.18188 37.6931 7.5 35.625 7.5H31.875V3.75H28.125V7.5H16.875V3.75H13.125V7.5H9.375C7.30687 7.5 5.625 9.18188 5.625 11.25V37.5C5.625 39.5681 7.30687 41.25 9.375 41.25ZM35.625 15L35.6269 37.5H9.375V15H35.625Z" fill="#F7931E"/>
</svg>
